<svg width="356" height="53" viewBox="0 0 356 53" fill="none" xmlns="http://www.w3.org/2000/svg">
<path d="M157.532 49.6167V2.94055H148.804V49.6167H157.532Z" fill="#3C3C3B"/>
<path d="M149.804 3.94055H156.532V48.6167H149.804V3.94055Z" stroke="black" stroke-opacity="0.2" stroke-width="2"/>
<path d="M151.698 0H0V52.5107H151.698V0Z" fill="white"/>
<path d="M1 51.5107V1H150.698V51.5107H1Z" stroke="black" stroke-opacity="0.2" stroke-width="2"/>
<path d="M151.698 23H0V34.669H151.698V23Z" fill="#EC5250"/>
<path d="M1 33.669V24H150.698V33.669H1Z" stroke="black" stroke-opacity="0.2" stroke-width="2"/>
<path d="M151.698 8.77515H0V26.2787H151.698V8.77515Z" fill="#C6C6C5"/>
<path d="M1 25.2787V9.77515H150.698V25.2787H1Z" stroke="black" stroke-opacity="0.2" stroke-width="2"/>
<path d="M26.0455 11.6691H22.1247C21.1912 11.6691 20.4443 12.4159 20.4443 13.3494V21.6578C20.4443 22.5913 21.1912 23.3381 22.1247 23.3381H26.0455C26.979 23.3381 27.7258 22.5913 27.7258 21.6578V13.3494C27.7258 12.4159 26.979 11.6691 26.0455 11.6691Z" fill="#538684"/>
<path d="M22.1247 12.6691H26.0455C26.4267 12.6691 26.7258 12.9682 26.7258 13.3494V21.6578C26.7258 22.039 26.4267 22.3381 26.0455 22.3381H22.1247C21.7434 22.3381 21.4443 22.039 21.4443 21.6578V13.3494C21.4443 12.9682 21.7435 12.6691 22.1247 12.6691Z" stroke="black" stroke-opacity="0.2" stroke-width="2"/>
<path d="M30.6196 13.3494V21.6578C30.6196 22.5913 31.4131 23.3381 32.3 23.3381H36.2674C37.201 23.3381 37.9478 22.5913 37.9478 21.6578V13.3494C37.9478 12.4159 37.201 11.6691 36.2674 11.6691H32.3C31.4131 11.6691 30.6196 12.4159 30.6196 13.3494Z" fill="#538684"/>
<path d="M31.6196 21.6578V13.3494C31.6196 12.986 31.9474 12.6691 32.3 12.6691H36.2674C36.6487 12.6691 36.9478 12.9682 36.9478 13.3494V21.6578C36.9478 22.039 36.6487 22.3381 36.2674 22.3381H32.3C31.9474 22.3381 31.6196 22.0211 31.6196 21.6578Z" stroke="black" stroke-opacity="0.2" stroke-width="2"/>
<path d="M59.6054 11.6691H45.4626C44.529 11.6691 43.7822 12.4159 43.7822 13.3494V21.6578C43.7822 22.5913 44.529 23.3381 45.4626 23.3381H59.6054C60.539 23.3381 61.2858 22.5913 61.2858 21.6578V13.3494C61.2858 12.4159 60.539 11.6691 59.6054 11.6691Z" fill="#538684"/>
<path d="M45.4626 12.6691H59.6054C59.9867 12.6691 60.2858 12.9682 60.2858 13.3494V21.6578C60.2858 22.039 59.9867 22.3381 59.6054 22.3381H45.4626C45.0813 22.3381 44.7822 22.039 44.7822 21.6578V13.3494C44.7822 12.9682 45.0813 12.6691 45.4626 12.6691Z" stroke="black" stroke-opacity="0.2" stroke-width="2"/>
<path d="M72.7213 11.6691H68.8005C67.8669 11.6691 67.1201 12.4159 67.1201 13.3494V21.6578C67.1201 22.5913 67.8669 23.3381 68.8005 23.3381H72.7213C73.6548 23.3381 74.4016 22.5913 74.4016 21.6578V13.3494C74.4016 12.4159 73.6548 11.6691 72.7213 11.6691Z" fill="#538684"/>
<path d="M68.8005 12.6691H72.7213C73.1025 12.6691 73.4016 12.9682 73.4016 13.3494V21.6578C73.4016 22.039 73.1025 22.3381 72.7213 22.3381H68.8005C68.4192 22.3381 68.1201 22.039 68.1201 21.6578V13.3494C68.1201 12.9682 68.4192 12.6691 68.8005 12.6691Z" stroke="black" stroke-opacity="0.2" stroke-width="2"/>
<path d="M77.2959 13.3494V21.6578C77.2959 22.5913 78.0894 23.3381 78.9762 23.3381H82.9437C83.8772 23.3381 84.624 22.5913 84.624 21.6578V13.3494C84.624 12.4159 83.8772 11.6691 82.9437 11.6691H78.9762C78.0894 11.6691 77.2959 12.4159 77.2959 13.3494Z" fill="#538684"/>
<path d="M78.2959 21.6578V13.3494C78.2959 12.986 78.6236 12.6691 78.9762 12.6691H82.9437C83.3249 12.6691 83.624 12.9682 83.624 13.3494V21.6578C83.624 22.039 83.325 22.3381 82.9437 22.3381H78.9762C78.6236 22.3381 78.2959 22.0211 78.2959 21.6578Z" stroke="black" stroke-opacity="0.2" stroke-width="2"/>
<path d="M106.282 11.6691H92.1388C91.2053 11.6691 90.4585 12.4159 90.4585 13.3494V21.6578C90.4585 22.5913 91.2053 23.3381 92.1388 23.3381H106.282C107.215 23.3381 107.962 22.5913 107.962 21.6578V13.3494C107.962 12.4159 107.215 11.6691 106.282 11.6691Z" fill="#538684"/>
<path d="M92.1388 12.6691H106.282C106.663 12.6691 106.962 12.9682 106.962 13.3494V21.6578C106.962 22.039 106.663 22.3381 106.282 22.3381H92.1388C91.7576 22.3381 91.4585 22.039 91.4585 21.6578V13.3494C91.4585 12.9682 91.7576 12.6691 92.1388 12.6691Z" stroke="black" stroke-opacity="0.2" stroke-width="2"/>
<path d="M119.398 11.6691H115.477C114.543 11.6691 113.796 12.4159 113.796 13.3494V21.6578C113.796 22.5913 114.543 23.3381 115.477 23.3381H119.398C120.331 23.3381 121.078 22.5913 121.078 21.6578V13.3494C121.078 12.4159 120.331 11.6691 119.398 11.6691Z" fill="#538684"/>
<path d="M115.477 12.6691H119.398C119.779 12.6691 120.078 12.9682 120.078 13.3494V21.6578C120.078 22.039 119.779 22.3381 119.398 22.3381H115.477C115.095 22.3381 114.796 22.039 114.796 21.6578V13.3494C114.796 12.9682 115.096 12.6691 115.477 12.6691Z" stroke="black" stroke-opacity="0.2" stroke-width="2"/>
<path d="M123.972 13.3494V21.6578C123.972 22.5913 124.765 23.3381 125.652 23.3381H129.619C130.553 23.3381 131.3 22.5913 131.3 21.6578V13.3494C131.3 12.4159 130.553 11.6691 129.619 11.6691H125.652C124.765 11.6691 123.972 12.4159 123.972 13.3494Z" fill="#538684"/>
<path d="M124.972 21.6578V13.3494C124.972 12.986 125.299 12.6691 125.652 12.6691H129.619C130.001 12.6691 130.3 12.9682 130.3 13.3494V21.6578C130.3 22.039 130.001 22.3381 129.619 22.3381H125.652C125.299 22.3381 124.972 22.0211 124.972 21.6578Z" stroke="black" stroke-opacity="0.2" stroke-width="2"/>
<path d="M12.9292 11.6691H7.51481C6.58129 11.6691 5.83447 12.4159 5.83447 13.3494V21.6578C5.83447 22.5913 6.58129 23.3381 7.51481 23.3381H12.9292C13.8628 23.3381 14.6096 22.5913 14.6096 21.6578V13.3494C14.6096 12.4159 13.8628 11.6691 12.9292 11.6691Z" fill="#538684"/>
<path d="M7.51481 12.6691H12.9292C13.3105 12.6691 13.6096 12.9682 13.6096 13.3494V21.6578C13.6096 22.039 13.3105 22.3381 12.9292 22.3381H7.51481C7.13357 22.3381 6.83447 22.039 6.83447 21.6578V13.3494C6.83447 12.9682 7.13359 12.6691 7.51481 12.6691Z" stroke="black" stroke-opacity="0.2" stroke-width="2"/>
<path d="M144.183 11.6691H138.815C137.882 11.6691 137.135 12.4159 137.135 13.3494V21.6578C137.135 22.5913 137.882 23.3381 138.815 23.3381H144.183C145.116 23.3381 145.863 22.5913 145.863 21.6578V13.3494C145.863 12.4159 145.116 11.6691 144.183 11.6691Z" fill="#538684"/>
<path d="M138.815 12.6691H144.183C144.564 12.6691 144.863 12.9682 144.863 13.3494V21.6578C144.863 22.039 144.564 22.3381 144.183 22.3381H138.815C138.434 22.3381 138.135 22.039 138.135 21.6578V13.3494C138.135 12.9682 138.434 12.6691 138.815 12.6691Z" stroke="black" stroke-opacity="0.2" stroke-width="2"/>
<g style="mix-blend-mode:multiply">
<mask id="path-29-inside-1_65_54" fill="white">
<path fill-rule="evenodd" clip-rule="evenodd" d="M41.4483 47.283H16.9434V9.19522C16.9434 7.04812 18.7171 5.27441 20.8642 5.27441H37.4809C39.6746 5.27441 41.4483 7.04812 41.4483 9.19522V47.283ZM18.1103 46.1161H40.2814V9.24189C40.2814 7.70157 39.0212 6.44132 37.4809 6.44132H20.8642C19.3238 6.44132 18.1103 7.70157 18.1103 9.24189V46.1161Z"/>
</mask>
<path fill-rule="evenodd" clip-rule="evenodd" d="M41.4483 47.283H16.9434V9.19522C16.9434 7.04812 18.7171 5.27441 20.8642 5.27441H37.4809C39.6746 5.27441 41.4483 7.04812 41.4483 9.19522V47.283ZM18.1103 46.1161H40.2814V9.24189C40.2814 7.70157 39.0212 6.44132 37.4809 6.44132H20.8642C19.3238 6.44132 18.1103 7.70157 18.1103 9.24189V46.1161Z" fill="#C6C6C5"/>
<path d="M41.4483 47.283V49.283H43.4483V47.283H41.4483ZM16.9434 47.283H14.9434V49.283H16.9434V47.283ZM18.1103 46.1161H16.1103V48.1161H18.1103V46.1161ZM40.2814 46.1161V48.1161H42.2814V46.1161H40.2814ZM41.4483 45.283H16.9434V49.283H41.4483V45.283ZM18.9434 47.283V9.19522H14.9434V47.283H18.9434ZM18.9434 9.19522C18.9434 8.15268 19.8216 7.27441 20.8642 7.27441V3.27441C17.6125 3.27441 14.9434 5.94355 14.9434 9.19522H18.9434ZM20.8642 7.27441H37.4809V3.27441H20.8642V7.27441ZM37.4809 7.27441C38.5855 7.27441 39.4483 8.16804 39.4483 9.19522H43.4483C43.4483 5.9282 40.7638 3.27441 37.4809 3.27441V7.27441ZM39.4483 9.19522V47.283H43.4483V9.19522H39.4483ZM18.1103 48.1161H40.2814V44.1161H18.1103V48.1161ZM42.2814 46.1161V9.24189H38.2814V46.1161H42.2814ZM42.2814 9.24189C42.2814 6.597 40.1258 4.44132 37.4809 4.44132V8.44132C37.9166 8.44132 38.2814 8.80614 38.2814 9.24189H42.2814ZM37.4809 4.44132H20.8642V8.44132H37.4809V4.44132ZM20.8642 4.44132C18.1757 4.44132 16.1103 6.6411 16.1103 9.24189H20.1103C20.1103 8.76204 20.472 8.44132 20.8642 8.44132V4.44132ZM16.1103 9.24189V46.1161H20.1103V9.24189H16.1103Z" fill="black" fill-opacity="0.2" mask="url(#path-29-inside-1_65_54)"/>
<mask id="path-31-inside-2_65_54" fill="white">
<path d="M29.7792 46.6762H28.6123V5.83459H29.7792V46.6762Z"/>
</mask>
<path d="M29.7792 46.6762H28.6123V5.83459H29.7792V46.6762Z" fill="#C6C6C5"/>
<path d="M29.7792 46.6762V48.6762H31.7792V46.6762H29.7792ZM28.6123 46.6762H26.6123V48.6762H28.6123V46.6762ZM28.6123 5.83459V3.83459H26.6123V5.83459H28.6123ZM29.7792 5.83459H31.7792V3.83459H29.7792V5.83459ZM29.7792 44.6762H28.6123V48.6762H29.7792V44.6762ZM30.6123 46.6762V5.83459H26.6123V46.6762H30.6123ZM28.6123 7.83459H29.7792V3.83459H28.6123V7.83459ZM27.7792 5.83459V46.6762H31.7792V5.83459H27.7792Z" fill="black" fill-opacity="0.2" mask="url(#path-31-inside-2_65_54)"/>
</g>
<g style="mix-blend-mode:multiply">
<mask id="path-33-inside-3_65_54" fill="white">
<path fill-rule="evenodd" clip-rule="evenodd" d="M88.1246 47.283H63.6196V9.19522C63.6196 7.04812 65.3933 5.27441 67.5404 5.27441H84.1571C86.3509 5.27441 88.1246 7.04812 88.1246 9.19522V47.283ZM64.7865 46.1161H86.9577V9.24189C86.9577 7.70157 85.6975 6.44132 84.1571 6.44132H67.5404C66.0001 6.44132 64.7865 7.70157 64.7865 9.24189V46.1161Z"/>
</mask>
<path fill-rule="evenodd" clip-rule="evenodd" d="M88.1246 47.283H63.6196V9.19522C63.6196 7.04812 65.3933 5.27441 67.5404 5.27441H84.1571C86.3509 5.27441 88.1246 7.04812 88.1246 9.19522V47.283ZM64.7865 46.1161H86.9577V9.24189C86.9577 7.70157 85.6975 6.44132 84.1571 6.44132H67.5404C66.0001 6.44132 64.7865 7.70157 64.7865 9.24189V46.1161Z" fill="#C6C6C5"/>
<path d="M88.1246 47.283V49.283H90.1246V47.283H88.1246ZM63.6196 47.283H61.6196V49.283H63.6196V47.283ZM64.7865 46.1161H62.7865V48.1161H64.7865V46.1161ZM86.9577 46.1161V48.1161H88.9577V46.1161H86.9577ZM88.1246 45.283H63.6196V49.283H88.1246V45.283ZM65.6196 47.283V9.19522H61.6196V47.283H65.6196ZM65.6196 9.19522C65.6196 8.15268 66.4979 7.27441 67.5404 7.27441V3.27441C64.2887 3.27441 61.6196 5.94356 61.6196 9.19522H65.6196ZM67.5404 7.27441H84.1571V3.27441H67.5404V7.27441ZM84.1571 7.27441C85.2618 7.27441 86.1246 8.16804 86.1246 9.19522H90.1246C90.1246 5.9282 87.4401 3.27441 84.1571 3.27441V7.27441ZM86.1246 9.19522V47.283H90.1246V9.19522H86.1246ZM64.7865 48.1161H86.9577V44.1161H64.7865V48.1161ZM88.9577 46.1161V9.24189H84.9577V46.1161H88.9577ZM88.9577 9.24189C88.9577 6.597 86.802 4.44132 84.1571 4.44132V8.44132C84.5929 8.44132 84.9577 8.80614 84.9577 9.24189H88.9577ZM84.1571 4.44132H67.5404V8.44132H84.1571V4.44132ZM67.5404 4.44132C64.8519 4.44132 62.7865 6.64111 62.7865 9.24189H66.7865C66.7865 8.76204 67.1483 8.44132 67.5404 8.44132V4.44132ZM62.7865 9.24189V46.1161H66.7865V9.24189H62.7865Z" fill="black" fill-opacity="0.2" mask="url(#path-33-inside-3_65_54)"/>
<mask id="path-35-inside-4_65_54" fill="white">
<path d="M76.4555 46.6762H75.2886V5.83459H76.4555V46.6762Z"/>
</mask>
<path d="M76.4555 46.6762H75.2886V5.83459H76.4555V46.6762Z" fill="#C6C6C5"/>
<path d="M76.4555 46.6762V48.6762H78.4555V46.6762H76.4555ZM75.2886 46.6762H73.2886V48.6762H75.2886V46.6762ZM75.2886 5.83459V3.83459H73.2886V5.83459H75.2886ZM76.4555 5.83459H78.4555V3.83459H76.4555V5.83459ZM76.4555 44.6762H75.2886V48.6762H76.4555V44.6762ZM77.2886 46.6762V5.83459H73.2886V46.6762H77.2886ZM75.2886 7.83459H76.4555V3.83459H75.2886V7.83459ZM74.4555 5.83459V46.6762H78.4555V5.83459H74.4555Z" fill="black" fill-opacity="0.2" mask="url(#path-35-inside-4_65_54)"/>
</g>
<g style="mix-blend-mode:multiply">
<mask id="path-37-inside-5_65_54" fill="white">
<path fill-rule="evenodd" clip-rule="evenodd" d="M134.801 47.283H110.296V9.19522C110.296 7.04812 112.07 5.27441 114.217 5.27441H130.833C133.027 5.27441 134.801 7.04812 134.801 9.19522V47.283ZM111.463 46.1161H133.634V9.24189C133.634 7.70157 132.374 6.44132 130.833 6.44132H114.217C112.676 6.44132 111.463 7.70157 111.463 9.24189V46.1161Z"/>
</mask>
<path fill-rule="evenodd" clip-rule="evenodd" d="M134.801 47.283H110.296V9.19522C110.296 7.04812 112.07 5.27441 114.217 5.27441H130.833C133.027 5.27441 134.801 7.04812 134.801 9.19522V47.283ZM111.463 46.1161H133.634V9.24189C133.634 7.70157 132.374 6.44132 130.833 6.44132H114.217C112.676 6.44132 111.463 7.70157 111.463 9.24189V46.1161Z" fill="#C6C6C5"/>
<path d="M134.801 47.283V49.283H136.801V47.283H134.801ZM110.296 47.283H108.296V49.283H110.296V47.283ZM111.463 46.1161H109.463V48.1161H111.463V46.1161ZM133.634 46.1161V48.1161H135.634V46.1161H133.634ZM134.801 45.283H110.296V49.283H134.801V45.283ZM112.296 47.283V9.19522H108.296V47.283H112.296ZM112.296 9.19522C112.296 8.15268 113.174 7.27441 114.217 7.27441V3.27441C110.965 3.27441 108.296 5.94356 108.296 9.19522H112.296ZM114.217 7.27441H130.833V3.27441H114.217V7.27441ZM130.833 7.27441C131.938 7.27441 132.801 8.16804 132.801 9.19522H136.801C136.801 5.9282 134.116 3.27441 130.833 3.27441V7.27441ZM132.801 9.19522V47.283H136.801V9.19522H132.801ZM111.463 48.1161H133.634V44.1161H111.463V48.1161ZM135.634 46.1161V9.24189H131.634V46.1161H135.634ZM135.634 9.24189C135.634 6.597 133.478 4.44132 130.833 4.44132V8.44132C131.269 8.44132 131.634 8.80614 131.634 9.24189H135.634ZM130.833 4.44132H114.217V8.44132H130.833V4.44132ZM114.217 4.44132C111.528 4.44132 109.463 6.64111 109.463 9.24189H113.463C113.463 8.76204 113.825 8.44132 114.217 8.44132V4.44132ZM109.463 9.24189V46.1161H113.463V9.24189H109.463Z" fill="black" fill-opacity="0.2" mask="url(#path-37-inside-5_65_54)"/>
<mask id="path-39-inside-6_65_54" fill="white">
<path d="M123.132 46.6762H121.965V5.83459H123.132V46.6762Z"/>
</mask>
<path d="M123.132 46.6762H121.965V5.83459H123.132V46.6762Z" fill="#C6C6C5"/>
<path d="M123.132 46.6762V48.6762H125.132V46.6762H123.132ZM121.965 46.6762H119.965V48.6762H121.965V46.6762ZM121.965 5.83459V3.83459H119.965V5.83459H121.965ZM123.132 5.83459H125.132V3.83459H123.132V5.83459ZM123.132 44.6762H121.965V48.6762H123.132V44.6762ZM123.965 46.6762V5.83459H119.965V46.6762H123.965ZM121.965 7.83459H123.132V3.83459H121.965V7.83459ZM121.132 5.83459V46.6762H125.132V5.83459H121.132Z" fill="black" fill-opacity="0.2" mask="url(#path-39-inside-6_65_54)"/>
</g>
<path d="M154.638 0V52.5107H340.829C353.945 52.5107 360.48 36.6875 351.238 27.3989L333.688 9.84869C327.387 3.5474 318.798 0 309.883 0H154.638Z" fill="white"/>
<path d="M340.829 51.5107H155.638V1H309.883C318.534 1 326.868 4.44263 332.981 10.5558L350.529 28.1042C359.147 36.7658 353.05 51.5107 340.829 51.5107Z" stroke="black" stroke-opacity="0.2" stroke-width="2"/>
<mask id="mask0_65_54" style="mask-type:luminance" maskUnits="userSpaceOnUse" x="154" y="0" width="202" height="53">
<path d="M154.624 0.00939941V52.5201H340.839C353.936 52.5201 360.499 36.6828 351.233 27.4223L333.664 9.85338C327.363 3.5521 318.817 0.00939941 309.902 0.00939941H154.624Z" fill="white"/>
<path d="M155.624 51.5201V1.0094H309.902C318.551 1.0094 326.843 4.44665 332.957 10.5605L350.526 28.1294L350.526 28.1296C359.161 36.7598 353.045 51.5201 340.839 51.5201H155.624Z" stroke="white" stroke-width="2"/>
</mask>
<g mask="url(#mask0_65_54)">
<path d="M358 23H155V35H358V23Z" fill="#EC5250"/>
<path d="M156 34V24H357V34H156Z" stroke="black" stroke-opacity="0.2" stroke-width="2"/>
<path d="M355.579 8.77515H303.862C301.995 8.77515 300.501 10.2688 300.501 12.1358V22.918C300.501 24.7851 301.995 26.2787 303.862 26.2787H355.579V8.77515Z" fill="#C6C6C5"/>
<path d="M303.862 9.77515H354.579V25.2787H303.862C302.547 25.2787 301.501 24.2328 301.501 22.918V12.1358C301.501 10.8211 302.547 9.77515 303.862 9.77515Z" stroke="black" stroke-opacity="0.2" stroke-width="2"/>
<path d="M355.579 11.6691H312.17C308.949 11.6691 306.335 14.2829 306.335 17.5036C306.335 20.7242 308.949 23.3381 312.17 23.3381H355.579V11.6691Z" fill="#538684"/>
<path d="M312.17 12.6691H354.579V22.3381H312.17C309.502 22.3381 307.335 20.172 307.335 17.5036C307.335 14.8352 309.502 12.6691 312.17 12.6691Z" stroke="black" stroke-opacity="0.2" stroke-width="2"/>
</g>
<path d="M291.306 8.77515H154.638V26.2787H291.306C293.126 26.2787 294.667 24.7851 294.667 22.918V12.1358C294.667 10.2688 293.126 8.77515 291.306 8.77515Z" fill="#C6C6C5"/>
<path d="M155.638 25.2787V9.77515H291.306C292.583 9.77515 293.667 10.8301 293.667 12.1358V22.918C293.667 24.2238 292.583 25.2787 291.306 25.2787H155.638Z" stroke="black" stroke-opacity="0.2" stroke-width="2"/>
<path d="M287.152 11.6691H255.506C254.572 11.6691 253.825 12.4159 253.825 13.3494V21.6578C253.825 22.5913 254.572 23.3381 255.506 23.3381H287.152C288.085 23.3381 288.832 22.5913 288.832 21.6578V13.3494C288.832 12.4159 288.085 11.6691 287.152 11.6691Z" fill="#538684"/>
<path d="M255.506 12.6691H287.152C287.533 12.6691 287.832 12.9682 287.832 13.3494V21.6578C287.832 22.039 287.533 22.3381 287.152 22.3381H255.506C255.124 22.3381 254.825 22.039 254.825 21.6578V13.3494C254.825 12.9682 255.124 12.6691 255.506 12.6691Z" stroke="black" stroke-opacity="0.2" stroke-width="2"/>
<path d="M176.296 11.6691H162.153C161.219 11.6691 160.473 12.4159 160.473 13.3494V21.6578C160.473 22.5913 161.219 23.3381 162.153 23.3381H176.296C177.229 23.3381 177.976 22.5913 177.976 21.6578V13.3494C177.976 12.4159 177.229 11.6691 176.296 11.6691Z" fill="#538684"/>
<path d="M162.153 12.6691H176.296C176.677 12.6691 176.976 12.9682 176.976 13.3494V21.6578C176.976 22.039 176.677 22.3381 176.296 22.3381H162.153C161.772 22.3381 161.473 22.039 161.473 21.6578V13.3494C161.473 12.9682 161.772 12.6691 162.153 12.6691Z" stroke="black" stroke-opacity="0.2" stroke-width="2"/>
<path d="M189.412 11.6691H185.491C184.557 11.6691 183.811 12.4159 183.811 13.3494V21.6578C183.811 22.5913 184.557 23.3381 185.491 23.3381H189.412C190.345 23.3381 191.092 22.5913 191.092 21.6578V13.3494C191.092 12.4159 190.345 11.6691 189.412 11.6691Z" fill="#538684"/>
<path d="M185.491 12.6691H189.412C189.793 12.6691 190.092 12.9682 190.092 13.3494V21.6578C190.092 22.039 189.793 22.3381 189.412 22.3381H185.491C185.11 22.3381 184.811 22.039 184.811 21.6578V13.3494C184.811 12.9682 185.11 12.6691 185.491 12.6691Z" stroke="black" stroke-opacity="0.2" stroke-width="2"/>
<path d="M193.986 13.3494V21.6578C193.986 22.5913 194.78 23.3381 195.667 23.3381H199.634C200.568 23.3381 201.314 22.5913 201.314 21.6578V13.3494C201.314 12.4159 200.568 11.6691 199.634 11.6691H195.667C194.78 11.6691 193.986 12.4159 193.986 13.3494Z" fill="#538684"/>
<path d="M194.986 21.6578V13.3494C194.986 12.986 195.314 12.6691 195.667 12.6691H199.634C200.015 12.6691 200.314 12.9682 200.314 13.3494V21.6578C200.314 22.039 200.015 22.3381 199.634 22.3381H195.667C195.314 22.3381 194.986 22.0211 194.986 21.6578Z" stroke="black" stroke-opacity="0.2" stroke-width="2"/>
<path d="M222.972 11.6691H208.829C207.896 11.6691 207.149 12.4159 207.149 13.3494V21.6578C207.149 22.5913 207.896 23.3381 208.829 23.3381H222.972C223.906 23.3381 224.652 22.5913 224.652 21.6578V13.3494C224.652 12.4159 223.906 11.6691 222.972 11.6691Z" fill="#538684"/>
<path d="M208.829 12.6691H222.972C223.353 12.6691 223.652 12.9682 223.652 13.3494V21.6578C223.652 22.039 223.353 22.3381 222.972 22.3381H208.829C208.448 22.3381 208.149 22.039 208.149 21.6578V13.3494C208.149 12.9682 208.448 12.6691 208.829 12.6691Z" stroke="black" stroke-opacity="0.2" stroke-width="2"/>
<path d="M236.088 11.6691H232.167C231.234 11.6691 230.487 12.4159 230.487 13.3494V21.6578C230.487 22.5913 231.234 23.3381 232.167 23.3381H236.088C237.021 23.3381 237.768 22.5913 237.768 21.6578V13.3494C237.768 12.4159 237.021 11.6691 236.088 11.6691Z" fill="#538684"/>
<path d="M232.167 12.6691H236.088C236.469 12.6691 236.768 12.9682 236.768 13.3494V21.6578C236.768 22.039 236.469 22.3381 236.088 22.3381H232.167C231.786 22.3381 231.487 22.039 231.487 21.6578V13.3494C231.487 12.9682 231.786 12.6691 232.167 12.6691Z" stroke="black" stroke-opacity="0.2" stroke-width="2"/>
<path d="M240.662 13.3494V21.6578C240.662 22.5913 241.456 23.3381 242.342 23.3381H246.31C247.243 23.3381 247.99 22.5913 247.99 21.6578V13.3494C247.99 12.4159 247.243 11.6691 246.31 11.6691H242.342C241.456 11.6691 240.662 12.4159 240.662 13.3494Z" fill="#538684"/>
<path d="M241.662 21.6578V13.3494C241.662 12.986 241.99 12.6691 242.342 12.6691H246.31C246.691 12.6691 246.99 12.9682 246.99 13.3494V21.6578C246.99 22.039 246.691 22.3381 246.31 22.3381H242.342C241.99 22.3381 241.662 22.0211 241.662 21.6578Z" stroke="black" stroke-opacity="0.2" stroke-width="2"/>
<g style="mix-blend-mode:multiply">
<mask id="path-67-inside-7_65_54" fill="white">
<path fill-rule="evenodd" clip-rule="evenodd" d="M204.815 47.283H180.31V9.19522C180.31 7.04812 182.084 5.27441 184.231 5.27441H200.848C203.041 5.27441 204.815 7.04812 204.815 9.19522V47.283ZM181.477 46.1161H203.648V9.24189C203.648 7.70157 202.388 6.44132 200.848 6.44132H184.231C182.691 6.44132 181.477 7.70157 181.477 9.24189V46.1161Z"/>
</mask>
<path fill-rule="evenodd" clip-rule="evenodd" d="M204.815 47.283H180.31V9.19522C180.31 7.04812 182.084 5.27441 184.231 5.27441H200.848C203.041 5.27441 204.815 7.04812 204.815 9.19522V47.283ZM181.477 46.1161H203.648V9.24189C203.648 7.70157 202.388 6.44132 200.848 6.44132H184.231C182.691 6.44132 181.477 7.70157 181.477 9.24189V46.1161Z" fill="#C6C6C5"/>
<path d="M204.815 47.283V49.283H206.815V47.283H204.815ZM180.31 47.283H178.31V49.283H180.31V47.283ZM181.477 46.1161H179.477V48.1161H181.477V46.1161ZM203.648 46.1161V48.1161H205.648V46.1161H203.648ZM204.815 45.283H180.31V49.283H204.815V45.283ZM182.31 47.283V9.19522H178.31V47.283H182.31ZM182.31 9.19522C182.31 8.15268 183.188 7.27441 184.231 7.27441V3.27441C180.979 3.27441 178.31 5.94356 178.31 9.19522H182.31ZM184.231 7.27441H200.848V3.27441H184.231V7.27441ZM200.848 7.27441C201.952 7.27441 202.815 8.16804 202.815 9.19522H206.815C206.815 5.9282 204.131 3.27441 200.848 3.27441V7.27441ZM202.815 9.19522V47.283H206.815V9.19522H202.815ZM181.477 48.1161H203.648V44.1161H181.477V48.1161ZM205.648 46.1161V9.24189H201.648V46.1161H205.648ZM205.648 9.24189C205.648 6.597 203.492 4.44132 200.848 4.44132V8.44132C201.283 8.44132 201.648 8.80614 201.648 9.24189H205.648ZM200.848 4.44132H184.231V8.44132H200.848V4.44132ZM184.231 4.44132C181.542 4.44132 179.477 6.64111 179.477 9.24189H183.477C183.477 8.76204 183.839 8.44132 184.231 8.44132V4.44132ZM179.477 9.24189V46.1161H183.477V9.24189H179.477Z" fill="black" fill-opacity="0.2" mask="url(#path-67-inside-7_65_54)"/>
<mask id="path-69-inside-8_65_54" fill="white">
<path d="M193.146 46.6762H191.979V5.83459H193.146V46.6762Z"/>
</mask>
<path d="M193.146 46.6762H191.979V5.83459H193.146V46.6762Z" fill="#C6C6C5"/>
<path d="M193.146 46.6762V48.6762H195.146V46.6762H193.146ZM191.979 46.6762H189.979V48.6762H191.979V46.6762ZM191.979 5.83459V3.83459H189.979V5.83459H191.979ZM193.146 5.83459H195.146V3.83459H193.146V5.83459ZM193.146 44.6762H191.979V48.6762H193.146V44.6762ZM193.979 46.6762V5.83459H189.979V46.6762H193.979ZM191.979 7.83459H193.146V3.83459H191.979V7.83459ZM191.146 5.83459V46.6762H195.146V5.83459H191.146Z" fill="black" fill-opacity="0.2" mask="url(#path-69-inside-8_65_54)"/>
</g>
<g style="mix-blend-mode:multiply">
<mask id="path-71-inside-9_65_54" fill="white">
<path fill-rule="evenodd" clip-rule="evenodd" d="M251.491 47.283H226.986V9.19522C226.986 7.04812 228.76 5.27441 230.907 5.27441H247.524C249.718 5.27441 251.491 7.04812 251.491 9.19522V47.283ZM228.153 46.1161H250.324V9.24189C250.324 7.70157 249.064 6.44132 247.524 6.44132H230.907C229.367 6.44132 228.153 7.70157 228.153 9.24189V46.1161Z"/>
</mask>
<path fill-rule="evenodd" clip-rule="evenodd" d="M251.491 47.283H226.986V9.19522C226.986 7.04812 228.76 5.27441 230.907 5.27441H247.524C249.718 5.27441 251.491 7.04812 251.491 9.19522V47.283ZM228.153 46.1161H250.324V9.24189C250.324 7.70157 249.064 6.44132 247.524 6.44132H230.907C229.367 6.44132 228.153 7.70157 228.153 9.24189V46.1161Z" fill="#C6C6C5"/>
<path d="M251.491 47.283V49.283H253.491V47.283H251.491ZM226.986 47.283H224.986V49.283H226.986V47.283ZM228.153 46.1161H226.153V48.1161H228.153V46.1161ZM250.324 46.1161V48.1161H252.324V46.1161H250.324ZM251.491 45.283H226.986V49.283H251.491V45.283ZM228.986 47.283V9.19522H224.986V47.283H228.986ZM228.986 9.19522C228.986 8.15267 229.865 7.27441 230.907 7.27441V3.27441C227.655 3.27441 224.986 5.94357 224.986 9.19522H228.986ZM230.907 7.27441H247.524V3.27441H230.907V7.27441ZM247.524 7.27441C248.628 7.27441 249.491 8.16804 249.491 9.19522H253.491C253.491 5.9282 250.807 3.27441 247.524 3.27441V7.27441ZM249.491 9.19522V47.283H253.491V9.19522H249.491ZM228.153 48.1161H250.324V44.1161H228.153V48.1161ZM252.324 46.1161V9.24189H248.324V46.1161H252.324ZM252.324 9.24189C252.324 6.597 250.169 4.44132 247.524 4.44132V8.44132C247.96 8.44132 248.324 8.80614 248.324 9.24189H252.324ZM247.524 4.44132H230.907V8.44132H247.524V4.44132ZM230.907 4.44132C228.219 4.44132 226.153 6.64112 226.153 9.24189H230.153C230.153 8.76202 230.515 8.44132 230.907 8.44132V4.44132ZM226.153 9.24189V46.1161H230.153V9.24189H226.153Z" fill="black" fill-opacity="0.2" mask="url(#path-71-inside-9_65_54)"/>
<mask id="path-73-inside-10_65_54" fill="white">
<path d="M239.822 46.6762H238.655V5.83459H239.822V46.6762Z"/>
</mask>
<path d="M239.822 46.6762H238.655V5.83459H239.822V46.6762Z" fill="#C6C6C5"/>
<path d="M239.822 46.6762V48.6762H241.822V46.6762H239.822ZM238.655 46.6762H236.655V48.6762H238.655V46.6762ZM238.655 5.83459V3.83459H236.655V5.83459H238.655ZM239.822 5.83459H241.822V3.83459H239.822V5.83459ZM239.822 44.6762H238.655V48.6762H239.822V44.6762ZM240.655 46.6762V5.83459H236.655V46.6762H240.655ZM238.655 7.83459H239.822V3.83459H238.655V7.83459ZM237.822 5.83459V46.6762H241.822V5.83459H237.822Z" fill="black" fill-opacity="0.2" mask="url(#path-73-inside-10_65_54)"/>
</g>
</svg>
